<svg version="1.1" xmlns="http://www.w3.org/2000/svg" fill-rule="evenodd" clip-rule="evenodd" height="256" width="1024" viewBox="0 0 4096 1024"><path d="M1277.952 505.856c0-151.552-204.8-274.432-456.704-274.432-202.752 0-372.736 77.824-434.176 186.368-6.144 10.24-8.192 20.48-8.192 32.768 0 26.624 16.384 51.2 43.008 67.584L655.36 651.264c12.288 6.144 26.624 10.24 40.96 10.24 16.384 0 30.72-4.096 40.96-10.24l219.136-126.976c14.336-8.192 24.576-22.528 24.576-36.864s-8.192-26.624-22.528-36.864l-81.92-47.104-180.224 106.496-137.216-79.872c53.248-47.104 151.552-79.872 264.192-79.872 167.936 0 305.152 71.68 305.152 159.744-4.096 137.216-204.8 243.712-448.512 235.52-243.712-6.144-438.272-122.88-436.224-260.096C247.808 307.2 485.376 163.84 774.144 165.888c26.624 0 51.2 2.048 75.776 4.096-59.392-22.528-133.12-34.816-212.992-34.816-63.488 0-124.928 8.192-176.128 22.528C249.856 215.04 102.4 350.208 102.4 505.856c0 208.896 264.192 376.832 587.776 376.832 325.632 0 587.776-167.936 587.776-376.832z m186.368-94.208l40.96 4.096h303.104c8.192-22.528 14.336-43.008 20.48-61.44 6.144-18.432 12.288-38.912 16.384-59.392 4.096-20.48 10.24-40.96 14.336-65.536 4.096-22.528 8.192-38.912 8.192-45.056l4.096-26.624v-4.096c2.048-2.048 4.096-2.048 10.24 0 0 0 8.192 2.048 20.48 8.192 12.288 4.096 28.672 10.24 43.008 20.48 14.336 8.192 22.528 14.336 24.576 16.384v8.192c-2.048 2.048-8.192 4.096-22.528 8.192-10.24 16.384-18.432 32.768-28.672 51.2-10.24 16.384-40.96 67.584-92.16 149.504h65.536c12.288-16.384 22.528-30.72 28.672-38.912 6.144-8.192 12.288-12.288 16.384-14.336 4.096 0 10.24 2.048 16.384 8.192 16.384 14.336 28.672 24.576 36.864 34.816 8.192 10.24 10.24 16.384 10.24 18.432 0 2.048-4.096 2.048-6.144 2.048H1513.472l-34.816 2.048c0-2.048-14.336-16.384-14.336-16.384z m151.552 184.32c-28.672 20.48-63.488 38.912-108.544 55.296l-22.528 8.192c-4.096 2.048-6.144 0-8.192 0-2.048-2.048 0-4.096 4.096-8.192l20.48-14.336c4.096-4.096 12.288-10.24 22.528-18.432 10.24-8.192 22.528-20.48 38.912-36.864 16.384-16.384 28.672-32.768 40.96-53.248 12.288-18.432 20.48-32.768 22.528-40.96l8.192-18.432c2.048-4.096 4.096-6.144 4.096-8.192h6.144c14.336 6.144 32.768 16.384 51.2 26.624 18.432 10.24 28.672 18.432 28.672 24.576 0 2.048-2.048 6.144-6.144 6.144l-8.192 2.048-10.24 6.144c-28.672 26.624-57.344 49.152-83.968 69.632z m169.984-110.592c16.384 4.096 32.768 6.144 49.152 10.24s36.864 10.24 61.44 22.528c24.576 10.24 43.008 24.576 57.344 40.96 12.288 16.384 20.48 30.72 20.48 45.056 0 14.336-2.048 26.624-8.192 36.864-8.192 10.24-20.48 14.336-34.816 14.336-12.288 0-22.528-4.096-28.672-10.24-6.144-8.192-14.336-20.48-22.528-36.864-8.192-18.432-18.432-32.768-28.672-47.104-10.24-14.336-20.48-24.576-30.72-32.768-8.192-8.192-20.48-16.384-30.72-22.528-12.288-6.144-20.48-10.24-22.528-12.288-2.048 0-4.096-2.048-4.096-4.096v-4.096c0-2.048 2.048-2.048 8.192-2.048l14.336 2.048zM1687.552 167.936c34.816 30.72 57.344 53.248 69.632 71.68 12.288 18.432 20.48 38.912 22.528 59.392s2.048 36.864-4.096 49.152c-4.096 8.192-10.24 14.336-18.432 20.48-8.192 6.144-18.432 8.192-30.72 6.144-12.288-2.048-20.48-8.192-24.576-18.432-4.096-10.24-6.144-20.48-4.096-28.672 0-2.048 0-6.144 2.048-16.384s2.048-20.48 2.048-30.72 0-20.48-2.048-30.72c-2.048-22.528-8.192-36.864-12.288-49.152-4.096-8.192-8.192-16.384-12.288-22.528-4.096-6.144-6.144-10.24-8.192-12.288-2.048-2.048-2.048-4.096-2.048-4.096s0-2.048 2.048-4.096 4.096 0 6.144 0l14.336 10.24z m-137.216 20.48c8.192 6.144 18.432 12.288 30.72 22.528 12.288 10.24 28.672 24.576 45.056 45.056 18.432 20.48 26.624 43.008 26.624 67.584s-4.096 40.96-14.336 51.2c-10.24 8.192-20.48 12.288-32.768 10.24s-22.528-6.144-28.672-14.336c-6.144-8.192-10.24-16.384-10.24-22.528s0-18.432 2.048-30.72c2.048-14.336 2.048-28.672 0-43.008-2.048-14.336-4.096-26.624-8.192-34.816-4.096-10.24-10.24-20.48-16.384-30.72-8.192-10.24-12.288-16.384-14.336-18.432-2.048-2.048-2.048-4.096-2.048-4.096v-4.096c0-2.048 4.096-2.048 6.144 0 2.048-2.048 16.384 6.144 16.384 6.144zM2131.968 634.88l38.912 4.096h131.072v-409.6l-4.096-79.872c2.048-4.096 8.192-6.144 16.384-4.096 30.72 4.096 51.2 8.192 61.44 10.24 10.24 2.048 16.384 8.192 14.336 12.288-2.048 4.096-8.192 10.24-20.48 18.432v450.56h55.296V237.568l-4.096-79.872c2.048-4.096 8.192-6.144 14.336-4.096 30.72 4.096 49.152 8.192 57.344 10.24 8.192 2.048 12.288 4.096 14.336 8.192 2.048 2.048 2.048 4.096 2.048 8.192 0 2.048-8.192 8.192-20.48 16.384V512c6.144-12.288 10.24-22.528 12.288-28.672 2.048-6.144 8.192-20.48 14.336-38.912 8.192-20.48 14.336-36.864 18.432-51.2s10.24-30.72 14.336-49.152c4.096-16.384 8.192-30.72 8.192-36.864l4.096-20.48 2.048-16.384c2.048-2.048 8.192-2.048 14.336 0l32.768 14.336c10.24 4.096 18.432 8.192 28.672 14.336 10.24 6.144 14.336 10.24 14.336 12.288 0 2.048 0 4.096-2.048 6.144-2.048 4.096-8.192 6.144-20.48 8.192-28.672 51.2-51.2 92.16-69.632 122.88-18.432 30.72-32.768 53.248-43.008 65.536l-32.768 47.104v81.92h63.488c12.288-16.384 22.528-28.672 28.672-36.864 6.144-8.192 10.24-12.288 14.336-14.336 4.096 0 8.192 2.048 18.432 10.24l18.432 16.384c4.096 4.096 10.24 8.192 16.384 16.384s10.24 12.288 10.24 14.336c0 2.048-4.096 4.096-10.24 4.096h-464.896l-34.816 2.048-12.288-20.48z m51.2-339.968c24.576 24.576 40.96 47.104 55.296 67.584 12.288 20.48 22.528 40.96 30.72 61.44 8.192 20.48 12.288 38.912 10.24 57.344 0 16.384-4.096 30.72-12.288 40.96-8.192 10.24-20.48 14.336-32.768 14.336-14.336 0-22.528-4.096-28.672-12.288-4.096-8.192-8.192-18.432-6.144-32.768l2.048-30.72v-55.296c-2.048-14.336-4.096-28.672-6.144-40.96-2.048-12.288-6.144-22.528-10.24-32.768s-8.192-18.432-10.24-24.576c-4.096-6.144-6.144-10.24-8.192-14.336-2.048-2.048-2.048-4.096-4.096-6.144v-6.144c2.048-2.048 4.096 0 8.192 4.096l12.288 10.24z m911.36 106.496h51.2c2.048 20.48 2.048 32.768 4.096 36.864 0 4.096 2.048 14.336 4.096 30.72s4.096 26.624 6.144 32.768c0 6.144 4.096 18.432 10.24 36.864-24.576 10.24-49.152 20.48-73.728 32.768v-169.984h-2.048z m-57.344-233.472h-6.144V184.32c0 10.24 2.048 28.672 2.048 51.2v344.064c0 4.096 0 10.24-2.048 12.288-2.048 2.048-4.096 6.144-6.144 8.192-4.096 2.048-6.144 4.096-4.096 4.096 0 0 0 2.048 2.048 4.096l24.576 59.392c2.048 4.096 4.096 8.192 4.096 10.24 0 2.048 2.048 2.048 2.048 2.048l6.144-6.144 16.384-20.48c8.192-8.192 14.336-16.384 18.432-22.528l24.576-28.672c6.144-6.144 22.528-24.576 49.152-55.296l8.192 22.528c2.048 8.192 10.24 22.528 20.48 43.008s22.528 36.864 36.864 49.152c14.336 10.24 22.528 16.384 22.528 16.384 2.048 0 4.096-2.048 6.144-6.144 2.048-4.096 6.144-10.24 10.24-16.384 4.096-6.144 10.24-12.288 18.432-16.384 8.192-4.096 12.288-8.192 16.384-8.192l16.384-4.096c2.048 0 4.096-2.048 4.096-4.096s-2.048-4.096-4.096-4.096l-8.192-4.096c-2.048 0-12.288-6.144-32.768-16.384-18.432-10.24-34.816-22.528-47.104-38.912-12.288-16.384-24.576-32.768-38.912-51.2l26.624-10.24 45.056-20.48c4.096-2.048 12.288-6.144 22.528-10.24l18.432-4.096c20.48-4.096 16.384-10.24-6.144-22.528-24.576-12.288-40.96-18.432-47.104-20.48h-6.144c-2.048 0-2.048 2.048-6.144 6.144l-10.24 14.336c-12.288 16.384-26.624 34.816-45.056 55.296l-10.24-18.432c-2.048-4.096-6.144-10.24-10.24-24.576-4.096-12.288-8.192-22.528-10.24-28.672s-4.096-14.336-6.144-22.528h55.296v6.144c0 8.192 6.144 10.24 18.432 10.24 12.288 0 22.528 0 30.72-4.096 8.192-2.048 12.288-6.144 14.336-8.192 2.048-2.048 2.048-4.096 4.096-6.144l-2.048-61.44v-120.832c10.24-4.096 16.384-10.24 16.384-14.336 0-6.144-10.24-12.288-30.72-20.48s-32.768-12.288-34.816-12.288c-2.048 0-6.144 2.048-10.24 8.192-4.096 4.096-8.192 10.24-12.288 16.384H3092.48l-55.296-26.624z m57.344 133.12h118.784V389.12h-118.784v-88.064z m0-98.304h118.784v86.016h-118.784V202.752z m-155.648-28.672c4.096-2.048 6.144-4.096 6.144-6.144 0-2.048-4.096-6.144-10.24-8.192-8.192-4.096-18.432-6.144-34.816-10.24-16.384-4.096-24.576-6.144-28.672-8.192-2.048 0-6.144-2.048-8.192-2.048h-4.096v2.048s0 4.096-2.048 8.192l-6.144 28.672c-2.048 8.192-6.144 20.48-10.24 40.96-4.096 18.432-10.24 34.816-14.336 49.152-4.096 14.336-10.24 26.624-16.384 40.96-6.144 12.288-10.24 22.528-12.288 28.672l-8.192 18.432c-2.048 4.096-2.048 6.144 0 8.192 0 0 2.048 0 6.144-2.048l10.24-14.336 10.24-10.24 12.288 12.288 26.624-2.048h20.48v77.824h-45.056l-38.912-4.096 16.384 16.384 24.576-2.048h40.96v131.072c0 4.096-2.048 6.144-2.048 10.24 0 2.048-2.048 4.096-6.144 6.144l-4.096 4.096s0 2.048 2.048 6.144l30.72 63.488c2.048 4.096 2.048 6.144 2.048 6.144h2.048l4.096-4.096 26.624-30.72c6.144-8.192 32.768-38.912 79.872-92.16l18.432-20.48c2.048-2.048 2.048-4.096 2.048-6.144-2.048-2.048-4.096-2.048-6.144 0l-28.672 14.336c-14.336 8.192-34.816 18.432-61.44 30.72v-116.736h88.064c2.048 0 4.096 0 4.096-4.096 2.048-2.048-6.144-10.24-24.576-26.624l-16.384-14.336c-4.096-2.048-6.144-4.096-6.144-4.096-2.048 0-2.048 0-4.096 2.048s-10.24 12.288-30.72 34.816h-10.24v-63.488l8.192-6.144s2.048-2.048 2.048-8.192h55.296c2.048 0 4.096-2.048 4.096-4.096 2.048-2.048-12.288-16.384-40.96-38.912-4.096-2.048-6.144-4.096-6.144-4.096-2.048 0-6.144 4.096-14.336 12.288-8.192 8.192-14.336 16.384-20.48 22.528H2846.72l-30.72-2.048c18.432-20.48 38.912-45.056 59.392-75.776h145.408c2.048 0 2.048-2.048 4.096-4.096 0-2.048-6.144-10.24-22.528-24.576l-18.432-14.336c-4.096-2.048-6.144-4.096-8.192-4.096-2.048 0-12.288 12.288-34.816 36.864h-61.44c10.24-18.432 22.528-38.912 36.864-63.488l22.528-10.24z m684.032 53.248l-49.152 30.72c-28.672 18.432-57.344 30.72-81.92 43.008l-20.48 8.192c-4.096 2.048-6.144 2.048-8.192 0-2.048-2.048 0-4.096 4.096-10.24l12.288-12.288 20.48-18.432c12.288-10.24 26.624-26.624 40.96-45.056 16.384-18.432 30.72-36.864 43.008-57.344l10.24-16.384 6.144-10.24h4.096c2.048 0 8.192 2.048 12.288 8.192l24.576 18.432c4.096 2.048 10.24 8.192 20.48 16.384s14.336 14.336 14.336 16.384c0 6.144-4.096 8.192-10.24 8.192h-14.336c-14.336 12.288-24.576 16.384-28.672 20.48z m-4.096 131.072c12.288 6.144 20.48 10.24 20.48 12.288 2.048 6.144-2.048 10.24-10.24 14.336v198.656l2.048 59.392c-2.048 4.096-2.048 6.144-6.144 10.24-2.048 2.048-8.192 4.096-16.384 8.192-8.192 2.048-18.432 4.096-28.672 4.096-6.144 0-10.24 0-12.288-2.048-2.048-2.048-4.096-4.096-6.144-8.192l2.048-65.536V409.6c-34.816 24.576-61.44 43.008-79.872 55.296l-14.336 10.24c-4.096 2.048-6.144 2.048-8.192 0v-8.192l12.288-14.336c10.24-10.24 18.432-20.48 24.576-30.72s20.48-26.624 38.912-53.248c18.432-26.624 32.768-49.152 43.008-69.632l10.24-20.48c6.144-10.24 8.192-14.336 8.192-14.336h2.048c4.096 0 18.432 8.192 40.96 22.528s32.768 24.576 30.72 28.672c-2.048 4.096-8.192 8.192-20.48 8.192-6.144 10.24-18.432 22.528-32.768 34.816z m268.288-6.144c12.288-18.432 20.48-32.768 26.624-38.912 6.144-8.192 10.24-10.24 14.336-12.288 4.096 0 10.24 2.048 20.48 10.24 20.48 18.432 32.768 30.72 38.912 34.816 4.096 6.144 6.144 10.24 6.144 12.288 0 2.048-2.048 4.096-6.144 4.096h-77.824c-2.048 6.144-6.144 10.24-10.24 12.288v235.52c0 12.288-2.048 20.48-4.096 26.624-2.048 6.144-8.192 10.24-16.384 14.336-8.192 4.096-18.432 8.192-32.768 10.24-14.336 2.048-24.576 4.096-30.72 2.048-6.144 0-8.192-2.048-10.24-4.096-2.048-2.048-2.048-6.144-2.048-10.24 0-6.144 0-10.24-2.048-14.336-2.048-4.096-4.096-8.192-10.24-14.336-6.144-4.096-12.288-10.24-22.528-12.288l-20.48-6.144c-6.144-2.048-8.192-4.096-6.144-6.144 2.048-2.048 4.096-4.096 8.192-4.096l14.336 2.048 36.864 2.048c6.144 0 12.288 0 16.384-2.048 4.096-2.048 6.144-4.096 8.192-8.192 2.048-4.096 2.048-10.24 2.048-18.432V358.4h-126.976l-32.768 2.048-14.336-16.384 38.912 4.096 194.56 4.096z m-32.768-149.504c14.336-18.432 22.528-30.72 28.672-36.864 4.096-8.192 10.24-10.24 12.288-10.24s8.192 2.048 14.336 6.144c6.144 4.096 12.288 10.24 22.528 18.432s16.384 14.336 20.48 20.48c4.096 4.096 6.144 8.192 6.144 10.24 0 2.048-4.096 2.048-8.192 2.048h-210.944l-32.768 2.048-14.336-16.384 38.912 4.096h122.88zM1470.464 862.208c14.336 0 16.384-4.096 16.384-16.384v-75.776c0-12.288-2.048-14.336-16.384-16.384v-4.096h51.2v4.096c-12.288 0-16.384 2.048-16.384 16.384v75.776c0 14.336 4.096 14.336 16.384 16.384v4.096h-51.2v-4.096z m186.368-108.544c-10.24 0-16.384 2.048-16.384 22.528v90.112H1638.4l-75.776-94.208V839.68c0 18.432 4.096 20.48 16.384 22.528v4.096h-40.96V860.16c12.288 0 16.384-4.096 16.384-22.528v-75.776c-8.192-8.192-10.24-10.24-16.384-10.24v-4.096h30.72l65.536 81.92v-57.344c0-20.48-4.096-20.48-16.384-22.528v-4.096h40.96v8.192z m49.152 10.24c0-4.096 0-6.144 8.192-6.144 22.528 0 30.72 4.096 38.912 12.288 12.288 10.24 16.384 24.576 16.384 38.912 0 51.2-43.008 51.2-53.248 51.2-8.192 0-10.24 0-10.24-6.144v-90.112z m-32.768 100.352h49.152c53.248 0 65.536-32.768 65.536-57.344 0-38.912-26.624-57.344-69.632-57.344h-47.104v4.096c12.288 0 14.336 2.048 14.336 16.384v75.776c0 12.288-2.048 14.336-14.336 16.384 2.048 0 2.048 2.048 2.048 2.048z m253.952-110.592c-12.288 2.048-16.384 4.096-16.384 22.528v45.056c0 14.336 0 47.104-45.056 47.104-43.008 0-43.008-32.768-43.008-43.008v-53.248c0-12.288-2.048-14.336-16.384-16.384v-4.096h49.152v4.096c-14.336 0-16.384 4.096-16.384 16.384v55.296c0 10.24 0 34.816 30.72 34.816 14.336 0 22.528-6.144 28.672-14.336 2.048-4.096 4.096-10.24 4.096-22.528V778.24c0-18.432-4.096-20.48-16.384-22.528v-4.096h40.96v2.048z m94.208 30.72h-4.096c-2.048-14.336-14.336-30.72-32.768-30.72-8.192 0-18.432 6.144-18.432 16.384 0 26.624 57.344 28.672 57.344 65.536 0 14.336-12.288 30.72-36.864 30.72-12.288 0-20.48-6.144-26.624-6.144-4.096 0-6.144 2.048-6.144 6.144h-4.096l-4.096-36.864h4.096c4.096 8.192 12.288 30.72 34.816 30.72 14.336 0 20.48-10.24 20.48-18.432 0-10.24-2.048-16.384-28.672-30.72-16.384-10.24-26.624-16.384-26.624-32.768 0-20.48 16.384-28.672 30.72-28.672 10.24 0 20.48 6.144 24.576 6.144 4.096 0 6.144-4.096 6.144-6.144h4.096l6.144 34.816z m102.4 79.872h-51.2V860.16c16.384 0 16.384-4.096 16.384-18.432V757.76h-10.24c-18.432 0-24.576 4.096-26.624 22.528h-4.096v-28.672h98.304v28.672h-4.096c-4.096-18.432-8.192-22.528-26.624-22.528h-10.24v88.064c0 12.288 2.048 14.336 16.384 16.384l2.048 2.048z m151.552 0h-28.672l-40.96-53.248h-10.24v34.816c0 12.288 2.048 14.336 16.384 16.384v4.096h-47.104v-4.096c14.336 0 14.336-4.096 14.336-18.432v-73.728c0-12.288-2.048-14.336-14.336-16.384v-4.096h47.104c14.336 0 43.008 4.096 43.008 30.72 0 22.528-22.528 26.624-30.72 28.672l34.816 43.008c4.096 4.096 8.192 8.192 14.336 8.192l2.048 4.096z m-77.824-59.392c14.336 0 40.96 0 40.96-24.576 0-22.528-22.528-22.528-30.72-22.528-10.24 0-10.24 2.048-10.24 6.144v40.96z m92.16 57.344c14.336 0 16.384-4.096 16.384-16.384v-75.776c0-12.288-2.048-14.336-16.384-16.384v-4.096h51.2v4.096c-12.288 0-16.384 2.048-16.384 16.384v75.776c0 14.336 4.096 14.336 16.384 16.384v4.096h-51.2v-4.096z m102.4-43.008l20.48-47.104 20.48 47.104h-40.96z m86.016 43.008c-8.192 0-10.24-2.048-16.384-14.336l-43.008-98.304h-4.096l-36.864 83.968c-4.096 8.192-8.192 20.48-12.288 24.576-4.096 4.096-6.144 4.096-8.192 4.096v4.096h34.816v-4.096c-4.096 0-12.288 0-12.288-8.192 0-2.048 0-4.096 2.048-6.144l8.192-20.48h45.056l6.144 16.384c0 2.048 4.096 8.192 4.096 10.24 0 6.144-6.144 6.144-12.288 6.144v4.096h43.008l2.048-2.048z m63.488-108.544c-12.288 0-16.384 2.048-16.384 16.384v81.92c0 6.144 4.096 8.192 18.432 8.192 26.624 0 36.864 0 47.104-22.528h4.096l-8.192 30.72h-92.16v-4.096c10.24 0 14.336-2.048 14.336-16.384v-75.776c0-14.336-4.096-14.336-14.336-16.384v-4.096h49.152l-2.048 2.048z m155.648 55.296c16.384 0 22.528 0 28.672 2.048 8.192 2.048 18.432 8.192 18.432 22.528 0 22.528-20.48 24.576-32.768 24.576-10.24 0-12.288 0-12.288-6.144v-43.008z m-34.816-55.296c14.336 0 16.384 2.048 16.384 16.384v75.776c0 12.288-2.048 14.336-16.384 16.384v4.096h57.344c38.912 0 40.96-24.576 40.96-30.72 0-18.432-14.336-26.624-28.672-30.72 8.192-2.048 22.528-6.144 22.528-24.576 0-26.624-30.72-28.672-45.056-28.672H2662.4v2.048z m34.816 8.192c0-2.048 0-4.096 4.096-4.096h8.192c12.288 0 30.72 4.096 30.72 24.576s-20.48 20.48-24.576 20.48h-16.384v-40.96z m202.752 102.4h-45.056V860.16c6.144 0 12.288 0 12.288-6.144 0-2.048-2.048-8.192-4.096-10.24l-8.192-16.384h-45.056l-8.192 20.48c0 2.048-2.048 4.096-2.048 6.144 0 8.192 8.192 8.192 12.288 8.192v4.096h-34.816V860.16c2.048 0 6.144 0 8.192-4.096 4.096-4.096 10.24-16.384 12.288-24.576l36.864-83.968h4.096l43.008 98.304c6.144 12.288 8.192 14.336 16.384 14.336l2.048 4.096z m-43.008-45.056l-20.48-47.104-20.48 47.104h40.96z m180.224-65.536c-10.24 0-16.384 2.048-16.384 22.528v90.112h-2.048l-75.776-94.208V839.68c0 18.432 4.096 20.48 16.384 22.528v4.096h-40.96V860.16c12.288 0 16.384-4.096 16.384-22.528v-75.776c-8.192-8.192-10.24-10.24-16.384-10.24v-4.096h28.672l65.536 81.92v-57.344c0-20.48-4.096-20.48-16.384-22.528v-4.096h40.96v8.192z m83.968-4.096h45.056v4.096c-10.24 0-14.336 2.048-26.624 14.336l-32.768 32.768 40.96 43.008c10.24 12.288 16.384 18.432 26.624 18.432v4.096h-53.248v-4.096c10.24 0 12.288 0 12.288-4.096 0-6.144-16.384-22.528-22.528-28.672l-18.432-18.432-4.096 4.096v32.768c0 12.288 2.048 14.336 16.384 16.384v4.096h-49.152v-4.096c14.336 0 16.384-4.096 16.384-18.432v-73.728c0-12.288-4.096-14.336-16.384-16.384v-4.096h49.152v4.096c-14.336 0-16.384 2.048-16.384 16.384v34.816c38.912-34.816 43.008-38.912 43.008-45.056 0-4.096-4.096-4.096-12.288-6.144l2.048-6.144z m219.136 36.864c-4.096-18.432-16.384-30.72-38.912-30.72-8.192 0-18.432 4.096-26.624 10.24-6.144 6.144-14.336 18.432-14.336 43.008 0 36.864 20.48 51.2 43.008 51.2 20.48 0 32.768-12.288 38.912-18.432l2.048 2.048s-14.336 22.528-47.104 22.528c-28.672 0-57.344-16.384-57.344-59.392 0-38.912 28.672-59.392 59.392-59.392 14.336 0 26.624 6.144 30.72 6.144 0 0 6.144 0 8.192-6.144h4.096l2.048 38.912h-4.096z m83.968 73.728c-18.432 0-36.864-16.384-36.864-53.248 0-38.912 18.432-53.248 36.864-53.248s36.864 14.336 36.864 53.248c2.048 38.912-16.384 53.248-36.864 53.248z m0 6.144c30.72 0 57.344-22.528 57.344-59.392 0-38.912-28.672-59.392-57.344-59.392s-57.344 20.48-57.344 59.392c2.048 36.864 26.624 59.392 57.344 59.392z m96.256 0c4.096 0 10.24-2.048 10.24-10.24 0-6.144-4.096-10.24-10.24-10.24s-10.24 4.096-10.24 10.24c0 8.192 6.144 10.24 10.24 10.24z m45.056 22.528c6.144-2.048 20.48-12.288 20.48-24.576 0-14.336-10.24-16.384-14.336-16.384-4.096 0-10.24 2.048-10.24 10.24 0 6.144 6.144 8.192 10.24 8.192h4.096s2.048 0 2.048 2.048c0 4.096-2.048 10.24-14.336 18.432l2.048 2.048z m90.112-135.168c-12.288 0-16.384 2.048-16.384 16.384v81.92c0 6.144 2.048 8.192 18.432 8.192 26.624 0 36.864 0 47.104-22.528h4.096l-8.192 30.72h-92.16v-4.096c10.24 0 14.336-2.048 14.336-16.384v-75.776c0-14.336-4.096-14.336-14.336-16.384v-4.096h49.152l-2.048 2.048z m126.976 110.592h-51.2V860.16c16.384 0 16.384-4.096 16.384-18.432V757.76h-10.24c-18.432 0-22.528 4.096-26.624 22.528h-4.096v-28.672h98.304v28.672h-4.096c-4.096-18.432-8.192-22.528-26.624-22.528h-6.144v88.064c0 12.288 2.048 14.336 16.384 16.384l-2.048 2.048z m73.728-100.352c0-4.096 0-6.144 8.192-6.144 22.528 0 30.72 4.096 38.912 12.288 12.288 10.24 16.384 24.576 16.384 38.912 0 51.2-43.008 51.2-53.248 51.2-8.192 0-10.24 0-10.24-6.144v-90.112z m-32.768 100.352h49.152c53.248 0 65.536-32.768 65.536-57.344 0-38.912-26.624-57.344-69.632-57.344h-47.104v4.096c12.288 0 14.336 2.048 14.336 16.384v75.776c0 12.288-2.048 14.336-14.336 16.384v2.048z m153.6 2.048c4.096 0 10.24-2.048 10.24-10.24 0-6.144-4.096-10.24-10.24-10.24s-10.24 4.096-10.24 10.24c2.048 8.192 6.144 10.24 10.24 10.24z" fill="#004186"></path></svg>